<?xml version="1.0" encoding="utf-8"?>
<!-- Generator: Adobe Illustrator 25.1.0, SVG Export Plug-In . SVG Version: 6.00 Build 0)  -->
<svg version="1.1" id="Ebene_1" xmlns="http://www.w3.org/2000/svg" xmlns:xlink="http://www.w3.org/1999/xlink" x="0px" y="0px"
	 viewBox="0 0 795.6 142.82" style="enable-background:new 0 0 795.6 142.82;" xml:space="preserve">
<style type="text/css">
	.st0{fill:#83D6FF;}
	.st1{fill:#449ECC;}
	.st2{fill:#2E778E;}
</style>
<g>
	<g>
		<path d="M374.58,90.24c-2.7,3.16-5.84,5.55-9.43,7.17c-3.59,1.62-7.5,2.43-11.74,2.43c-5.55,0-10.64-1.25-15.27-3.76
			c-4.63-2.51-9.91-6.85-15.85-13.02c-7.48-0.62-14.19-2.79-20.13-6.54c-5.94-3.74-10.57-8.64-13.88-14.69
			c-3.32-6.05-4.98-12.78-4.98-20.19c0-7.87,1.89-14.98,5.67-21.35c3.78-6.36,8.98-11.34,15.62-14.92C311.21,1.79,318.66,0,326.91,0
			c8.25,0,15.69,1.79,22.33,5.38c6.63,3.59,11.84,8.54,15.62,14.87c3.78,6.33,5.67,13.46,5.67,21.4c0,6.4-1.27,12.32-3.82,17.76
			c-2.55,5.44-6.09,10.07-10.64,13.88c-4.55,3.82-9.83,6.58-15.85,8.27c2.24,2.39,4.43,4.13,6.59,5.21
			c2.16,1.08,4.47,1.62,6.94,1.62c5.32,0,9.95-2.16,13.88-6.48L374.58,90.24z M302.15,56.29c2.47,4.36,5.86,7.75,10.18,10.18
			c4.32,2.43,9.18,3.64,14.58,3.64c5.4,0,10.26-1.22,14.58-3.64c4.32-2.43,7.71-5.82,10.18-10.18c2.47-4.36,3.7-9.24,3.7-14.64
			c0-5.4-1.23-10.28-3.7-14.64c-2.47-4.36-5.86-7.75-10.18-10.18c-4.32-2.43-9.18-3.64-14.58-3.64c-5.4,0-10.26,1.22-14.58,3.64
			c-4.32,2.43-7.71,5.82-10.18,10.18c-2.47,4.36-3.7,9.24-3.7,14.64C298.45,47.05,299.68,51.93,302.15,56.29z"/>
		<path d="M395.17,73.87c-6.25-6.29-9.37-15.29-9.37-27.02V1.16h15.04v45.12c0,15.89,6.86,23.83,20.59,23.83
			c13.65,0,20.48-7.94,20.48-23.83V1.16h14.81v45.7c0,11.73-3.11,20.73-9.31,27.02c-6.21,6.29-14.91,9.43-26.09,9.43
			C410.13,83.3,401.42,80.16,395.17,73.87z"/>
		<path d="M477.78,1.16h15.04v80.99h-15.04V1.16z"/>
		<path d="M577.62,69.42v12.73h-69.07V72.08l47.67-58.2h-46.86V1.16h66.76v10.07l-47.67,58.2H577.62z"/>
		<path d="M654.33,69.42v12.73h-69.07V72.08l47.67-58.2h-46.86V1.16h66.76v10.07l-47.67,58.2H654.33z"/>
		<path d="M668.1,1.16h15.04v68.26h42.35v12.73H668.1V1.16z"/>
		<path d="M763.9,53.57v28.58h-15.04V53.8L717.04,1.16h16.08l23.72,39.45l23.95-39.45h14.81L763.9,53.57z"/>
	</g>
	<path class="st0" d="M139.32,95.12l-44.2,44.2c-4.67,4.67-12.3,4.67-16.97,0L3.5,64.67c-4.67-4.67-4.67-12.3,0-16.97L47.7,3.5
		c4.67-4.67,12.3-4.67,16.97,0l74.65,74.65C143.99,82.82,143.99,90.45,139.32,95.12z"/>
	<path class="st1" d="M192.22,95.12l-44.2,44.2c-4.67,4.67-12.3,4.67-16.97,0L56.4,64.67c-4.67-4.67-4.67-12.3,0-16.97l44.2-44.2
		c4.67-4.67,12.3-4.67,16.97,0l74.65,74.65C196.89,82.82,196.89,90.45,192.22,95.12z"/>
	<path class="st2" d="M245.13,95.12l-44.2,44.2c-4.67,4.67-12.3,4.67-16.97,0l-74.65-74.65c-4.67-4.67-4.67-12.3,0-16.97l44.2-44.2
		c4.67-4.67,12.3-4.67,16.97,0l74.65,74.65C249.8,82.82,249.8,90.45,245.13,95.12z"/>
	<g>
		<path d="M468.98,142.43v-28.44h8.4c3.05,0,5.36,0.63,6.93,1.89c1.58,1.26,2.36,3.11,2.36,5.56c0,1.47-0.4,2.75-1.2,3.84
			s-1.9,1.87-3.29,2.34c1.65,0.36,2.98,1.18,3.99,2.44c1.01,1.26,1.51,2.72,1.51,4.37c0,2.51-0.81,4.47-2.43,5.89
			c-1.62,1.41-3.88,2.12-6.77,2.12H468.98z M471.38,126.75h6.56c2-0.04,3.56-0.51,4.66-1.42c1.1-0.91,1.65-2.23,1.65-3.96
			c0-1.83-0.57-3.17-1.71-4.04c-1.14-0.87-2.86-1.3-5.17-1.3h-6V126.75z M471.38,128.78v11.62h7.21c2.06,0,3.69-0.52,4.89-1.57
			c1.2-1.05,1.81-2.5,1.81-4.36c0-1.75-0.58-3.14-1.73-4.16s-2.74-1.53-4.78-1.53H471.38z"/>
		<path d="M500.75,129.5l8.69-15.51h2.77l-10.27,17.73v10.7h-2.4v-10.7l-10.25-17.73h2.85L500.75,129.5z"/>
		<path d="M541.75,129.13h-13.26v13.3h-2.4v-28.44h17.62v2.03h-15.21v11.07h13.26V129.13z"/>
		<path d="M560.62,134.44h-12.91l-2.93,7.99h-2.52l10.76-28.44h2.29l10.76,28.44h-2.5L560.62,134.44z M548.45,132.41h11.41
			l-5.7-15.49L548.45,132.41z"/>
		<path d="M570.24,142.43v-28.44h8.4c3.05,0,5.36,0.63,6.93,1.89c1.58,1.26,2.36,3.11,2.36,5.56c0,1.47-0.4,2.75-1.2,3.84
			s-1.9,1.87-3.29,2.34c1.65,0.36,2.98,1.18,3.99,2.44c1.01,1.26,1.51,2.72,1.51,4.37c0,2.51-0.81,4.47-2.43,5.89
			c-1.62,1.41-3.88,2.12-6.77,2.12H570.24z M572.65,126.75h6.56c2-0.04,3.56-0.51,4.66-1.42c1.1-0.91,1.65-2.23,1.65-3.96
			c0-1.83-0.57-3.17-1.71-4.04c-1.14-0.87-2.86-1.3-5.17-1.3h-6V126.75z M572.65,128.78v11.62h7.21c2.06,0,3.69-0.52,4.89-1.57
			c1.2-1.05,1.81-2.5,1.81-4.36c0-1.75-0.58-3.14-1.73-4.16s-2.74-1.53-4.78-1.53H572.65z"/>
		<path d="M597.69,142.43h-2.4v-28.44h2.4V142.43z"/>
		<path d="M621.1,134.44h-12.91l-2.93,7.99h-2.52l10.76-28.44h2.29l10.76,28.44h-2.5L621.1,134.44z M608.94,132.41h11.41l-5.7-15.49
			L608.94,132.41z"/>
		<path d="M651.91,142.43h-2.4l-16.35-24.34v24.34h-2.42v-28.44h2.42l16.37,24.36v-24.36h2.38V142.43z"/>
		<path d="M689.93,142.43h-2.42V128.8h-16.25v13.63h-2.4v-28.44h2.4v12.77h16.25v-12.77h2.42V142.43z"/>
		<path d="M712.86,134.44h-12.91l-2.93,7.99h-2.52l10.76-28.44h2.29l10.76,28.44h-2.5L712.86,134.44z M700.69,132.41h11.41
			l-5.7-15.49L700.69,132.41z"/>
		<path d="M743.66,142.43h-2.4l-16.35-24.34v24.34h-2.42v-28.44h2.42l16.37,24.36v-24.36h2.38V142.43z"/>
		<path d="M766.98,135.44c0-1.58-0.55-2.82-1.66-3.74c-1.11-0.92-3.13-1.79-6.07-2.62c-2.94-0.83-5.09-1.73-6.45-2.71
			c-1.93-1.38-2.89-3.19-2.89-5.43c0-2.17,0.9-3.94,2.69-5.3c1.79-1.36,4.08-2.04,6.87-2.04c1.89,0,3.58,0.36,5.07,1.09
			c1.49,0.73,2.65,1.75,3.47,3.05c0.82,1.3,1.23,2.75,1.23,4.36h-2.42c0-1.95-0.66-3.51-1.99-4.69c-1.33-1.18-3.11-1.77-5.35-1.77
			c-2.17,0-3.91,0.49-5.2,1.46s-1.93,2.24-1.93,3.8c0,1.45,0.58,2.63,1.74,3.54c1.16,0.91,3.01,1.72,5.57,2.42
			c2.55,0.7,4.49,1.42,5.8,2.17c1.31,0.75,2.3,1.64,2.97,2.69c0.66,1.04,1,2.27,1,3.69c0,2.24-0.9,4.04-2.69,5.39
			c-1.79,1.35-4.15,2.03-7.08,2.03c-2.01,0-3.84-0.36-5.52-1.07c-1.67-0.72-2.94-1.72-3.81-3.01c-0.87-1.29-1.3-2.77-1.3-4.43h2.4
			c0,2.01,0.75,3.59,2.25,4.75c1.5,1.16,3.49,1.74,5.98,1.74c2.21,0,3.99-0.49,5.33-1.46C766.31,138.35,766.98,137.05,766.98,135.44
			z"/>
		<path d="M795.6,129.75c0,2.62-0.45,4.92-1.36,6.89c-0.91,1.98-2.2,3.5-3.88,4.57c-1.68,1.07-3.62,1.6-5.82,1.6
			c-3.32,0-6-1.19-8.05-3.56c-2.04-2.38-3.07-5.58-3.07-9.62v-2.93c0-2.59,0.46-4.89,1.38-6.88c0.92-2,2.22-3.54,3.9-4.61
			s3.61-1.61,5.8-1.61s4.12,0.53,5.79,1.58c1.67,1.05,2.97,2.55,3.88,4.47c0.91,1.93,1.39,4.16,1.43,6.7V129.75z M793.19,126.67
			c0-3.42-0.77-6.11-2.32-8.05c-1.55-1.94-3.67-2.91-6.37-2.91c-2.64,0-4.75,0.97-6.32,2.92c-1.57,1.95-2.35,4.67-2.35,8.15v2.97
			c0,3.37,0.78,6.04,2.34,8.02s3.68,2.96,6.37,2.96c2.72,0,4.84-0.97,6.37-2.92c1.52-1.95,2.29-4.66,2.29-8.13V126.67z"/>
	</g>
</g>
</svg>
